<svg viewBox="0 0 32 32" xmlns="http://www.w3.org/2000/svg"><path d="M16 2.115C8.332 2.115 2.115 8.332 2.115 16S8.332 29.885 16 29.885 29.885 23.668 29.885 16 23.668 2.115 16 2.115z" fill="#FFF"/><path d="M16 30.259C8.137 30.259 1.74 23.863 1.74 16S8.137 1.74 16 1.74 30.259 8.137 30.259 16c0 7.863-6.396 14.259-14.259 14.259zm0-27.768C8.551 2.491 2.49 8.551 2.49 16S8.551 29.509 16 29.509 29.509 23.449 29.509 16 23.449 2.491 16 2.491z" fill="#CCC"/><path d="M16 0h-.155c-.001 0 0 0 0 0h-.232l-.022.001h-.011l-.033.001-.033.001h-.011l-.033.001-.044.001c-.751.027-1.488.105-2.209.232l.13.739A15.826 15.826 0 0116 .75V0zm-5.487.966c-.129.047-.257.096-.385.146a.64.64 0 00-.039.016h-.001a.049.049 0 01-.011.004h-.001l-.01.004-.001.001-.01.004-.002.001a.077.077 0 00-.016.007l-.002.001-.009.004-.001.001-.01.004-.001.001-.009.004-.002.001-.006.002c-.002-.002-.004-.001-.005-.001a.017.017 0 01-.005.002l-.003.001-.008.004-.004.001-.006.003-.004.002a.014.014 0 00-.006.002l-.005.002-.004.002-.006.002-.005.002-.005.002a.017.017 0 01-.005.002l-.005.002a18884284700.868 18884284700.868 0 01-.01.005l-.005.001a18884284700.868 18884284700.868 0 00-.016.007l-.004.002a.014.014 0 01-.006.002l-.005.002-.005.002-.005.002-.005.003-.005.002-.006.002-.003.001a.049.049 0 00-.007.003.008.008 0 00-.004.002l-.007.003-.003.001-.006.003-.004.001-.006.003-.003.001-.008.003-.003.001-.007.004-.003.001-.008.003-.002.001a.03.03 0 00-.008.004h-.001a.02.02 0 00-.008.004l-.002.001-.009.003-.002.001-.008.003-.002.001-.009.004-.002.001a.069.069 0 01-.008.003l-.001.001-.008.003-.001.001-.009.003-.002.001-.008.004-.001.001a.126.126 0 00-.01.003l-.001.001-.009.004h-.001l-.008.004-.002.001-.009.003-.001.001a.036.036 0 00-.009.004l-.001.001-.009.003-.001.001a.03.03 0 00-.01.004h-.001l-.008.004h-.001a.036.036 0 01-.009.004l-.01.004h-.001l-.009.005h-.001l-.01.004-.009.005a.03.03 0 01-.01.004l-.001.001-.009.004-.002.001-.009.003h-.001l-.029.013h-.001l-.009.005h-.001l-.01.004-.03.013-.01.004c-.012.008-.026.014-.039.02l-.01.004-.01.005a1.563 1.563 0 01-.04.018l-.04.018c-.449.208-.888.436-1.315.684l.376.649c.769-.446 1.58-.826 2.413-1.13l-.256-.705zm-4.82 2.795c-.387.327-.759.672-1.114 1.034l-.007.007-.023.024-.008.007-.001.001a.023.023 0 01-.007.007l-.001.001-.006.007-.001.001-.014.014-.001.001a.023.023 0 01-.007.007l-.001.001a.043.043 0 01-.006.007l-.001.001-.007.007-.001.001-.007.007-.001.001-.006.007-.001.001-.006.006-.002.002-.006.006-.002.002-.006.006-.001.002-.006.006-.002.002-.006.006-.002.002a.012.012 0 01-.005.005l-.002.002-.005.006-.002.003-.006.005-.002.003-.006.005-.002.003-.005.006-.003.002-.004.004a.014.014 0 01-.003.004l-.005.005L4.381 5a.027.027 0 00-.005.006l-.003.002-.005.006-.003.003-.005.005-.003.003-.004.005-.003.003-.004.004-.004.004-.004.004-.002.003-.005.005-.003.004-.005.004-.003.004-.004.004-.004.004-.003.003-.004.005a.014.014 0 00-.003.004.012.012 0 00-.005.005l-.003.003-.003.003-.005.005-.003.004-.005.004-.003.004-.003.003a.027.027 0 01-.005.006 38202910512.157 38202910512.157 0 01-.01.01l-.006.007-.001.001-.008.009-.004.004-.002.002-.006.007-.002.002a38202910512.157 38202910512.157 0 01-.008.008l-.006.007-.001.001-.007.008-.001.001a.154.154 0 00-.012.013l-.001.001-.007.008-.001.001-.007.007-.001.001-.007.008-.001.001-.006.007-.001.002a.008.008 0 00-.004.004.002.002 0 00-.002.002l-.006.006-.002.002-.006.007-.002.002a.043.043 0 00-.006.007l-.001.001-.007.008-.001.001-.02.022-.001.001-.006.007-.001.001-.007.008-.001.001-.02.022a.055.055 0 00-.007.009l-.001.001-.007.007-.001.001-.007.008-.001.001a2.726 2.726 0 00-.019.022l-.001.001a.05.05 0 00-.007.008l-.001.001-.008.008-.027.032-.001.001-.007.007-.001.001a.05.05 0 01-.007.008l-.001.001-.027.031-.001.001-.007.008v.001l-.007.008-.012.014-.001.001-.007.008-.002.002-.005.006-.002.002-.006.007-.002.002-.006.007-.001.002a.057.057 0 00-.007.008l-.001.001-.003.004-.001.001a.05.05 0 00-.007.008l-.001.001-.006.007-.002.002-.006.007-.002.002-.018.022-.001.001a.05.05 0 00-.007.008l-.001.001-.006.007-.002.003-.006.006-.001.002-.006.007-.002.002a.014.014 0 01-.003.004l-.003.003-.005.006-.002.003-.005.005-.002.003-.005.006-.003.003a.027.027 0 01-.005.006l-.002.002-.003.005-.003.003-.005.005-.002.003a.027.027 0 00-.005.006l-.002.003a.032.032 0 00-.005.006l-.003.003-.005.005-.002.003-.002.003.575.481a15.404 15.404 0 011.882-1.889l-.484-.574zM2.12 8.036a15.895 15.895 0 00-1.176 2.537l.706.254c.3-.833.677-1.647 1.12-2.417l-.65-.374zM.231 13.277a16.314 16.314 0 00-.195 1.638l-.001.013-.001.019v.001l-.001.012-.001.019-.001.012v.001l-.001.019v.001l-.001.011v.002l-.001.012v.008l-.001.01v.002l-.001.01v.904c0 .001 0 0 0 0v.097l.75-.003v-.062c0-.871.074-1.745.22-2.596l-.765-.13zm.76 5.44l-.738.133c.018.098.036.196.056.293 0 .001 0 0 0 0l.002.01v.001l.006.031v.001l.002.009v.002l.002.009v.002l.002.01.002.01v.001l.002.009.001.003.002.008v.002l.002.008.001.004.001.007.001.003.002.008.001.004.002.007.001.004.001.007.001.005.001.005.001.005.001.005.001.005.001.006.001.005.001.004.002.008.001.003.002.009v.001a.052.052 0 01.002.011v.001l.004.018v.001l.002.011v.001l.002.011v.001c.155.713.358 1.407.604 2.081v.001l.017.046.703-.26a15.37 15.37 0 01-.698-2.57zm1.84 4.979l-.647.379.002.004.006.009.001.002.005.008.001.001.005.009.001.001.009.015.002.003.004.006.002.003.004.007.002.003.004.007.002.003.003.004.003.006a.008.008 0 01.002.004l.003.005.003.005a.008.008 0 01.002.004l.003.006.003.004.003.005.003.005.002.004.004.006.002.004.004.006a.008.008 0 01.002.004.022.022 0 00.003.005l.002.004.003.005.003.005.003.005.002.003.004.007.002.003.004.007.002.003.004.007.002.003.004.007.001.002.004.006.002.003.004.007.001.002.004.007a.003.003 0 01.001.002l.004.007.001.002.005.008.001.002.004.007.001.002.004.007.001.002.005.007.001.002.004.007.002.003.004.007.001.002.004.007.001.002.004.007.001.002.005.008.001.002.005.008.001.002.005.008.001.002.005.008.001.001.005.008.001.001.005.008.001.001.005.008.001.002.005.008.001.002.005.008.001.002.005.008.001.001.005.007.001.001.005.008.001.002.005.007.001.002.005.007.001.001.005.008v.001l.006.009.005.008.001.001.005.008.001.002.005.008.001.001.005.008.001.001.005.008.001.001.005.008.005.008.001.001.005.008.001.001.005.008.001.002.005.008.001.001.005.008.001.001.005.008.001.001.005.007.001.002.005.008.001.002.005.008.001.001.005.008.001.001.005.008.001.001.005.008.001.001.005.008.001.002.005.008.001.002.005.008.001.002.005.007.001.002.005.007.001.001.005.008.001.002.005.008.001.002.005.008.001.002.005.008.001.001.005.007.001.001.005.008.001.002.005.007.001.002.005.007.001.002.005.008.001.001.005.007.001.001.005.008.001.001.005.008.001.002.005.008.001.002.005.008.001.002.005.008.001.001.005.007.001.001.005.008.001.002.005.007.001.002.005.007.001.002.005.008.001.001.005.007.001.001.005.007.001.002.005.007.002.002.005.007.002.002.005.007.002.002.005.007.002.002.004.006.001.002.005.007.001.002.005.007.001.002.005.007.002.003.005.007.001.001.005.007.002.003.004.006.001.002.005.007.002.003.005.007.002.002.005.007a.003.003 0 01.001.002l.005.007a.003.003 0 01.001.002l.005.007.002.003.004.006.002.003.005.007.002.003.005.007a.003.003 0 01.001.002l.005.008.002.002.004.006.002.003.004.006.002.003.005.007.002.002.005.007.002.003.005.007a.003.003 0 01.001.002l.005.006.002.004.004.005.002.003.004.006.002.003.004.006.002.003.004.006.002.003.005.006.002.003a.018.018 0 00.004.005l.003.004a.018.018 0 00.004.005l.002.002.005.007.002.003.005.006a.003.003 0 01.001.002l.005.007.002.003a.022.022 0 00.004.005l.002.003a.022.022 0 00.004.005l.002.003a.022.022 0 00.004.005l.002.003.004.006.002.003c-.001.001.001.003.002.005l.002.003.005.007.002.002.004.006.002.003a.022.022 0 00.004.005l.002.003.005.006.002.003.005.006.002.003.005.007.002.003.004.006.002.003a.022.022 0 00.004.005l.002.003.004.006.002.003.005.007.002.002.005.007.002.003.005.007.002.002.004.006.002.003.005.006.001.002.005.007.002.003.005.007.002.002.005.007.002.002.005.007.001.002.005.006.002.002.005.006.002.002.005.007.002.002.005.007.002.002.005.007.002.002.005.006.002.002.005.007.001.001a.043.043 0 00.006.007l.001.001a.043.043 0 00.006.007l.001.001.006.008.001.001.006.008.001.001.006.008.001.001.006.008.001.001.006.007.001.002.006.007.001.001.006.008.001.001.006.008.006.008v.001l.006.008.001.001.006.007.001.001.006.007.001.001.006.008.006.008.006.008v.001a.055.055 0 00.006.008l.001.001.006.008.02.026a.055.055 0 00.006.008 16.191 16.191 0 00.487.602l.571-.486a14.82 14.82 0 01-1.549-2.171zm3.44 4.048l-.479.577c.291.241.591.473.899.693l.035.025.009.006.009.006.009.006.009.006.008.006.001.001.008.006.001.001.008.006.002.001.008.005.002.001.008.005.001.001.007.005.001.001.008.005.002.001.007.005.003.002.007.005.003.002.006.004.003.002a.022.022 0 01.005.004l.004.003.005.003.004.002.006.004.003.002.006.004.003.002.006.004.003.002.004.003.006.004.003.002.006.004.003.002a.022.022 0 01.005.004l.004.003.004.003.004.003.006.004.003.002a.03.03 0 01.007.005c-.002.002-.001.003-.001.003l.008.005.002.002.007.005.001.001.015.01.009.006h.001l.009.006.045.03c.337.228.683.443 1.038.645l.371-.652a15.221 15.221 0 01-2.19-1.514zm4.614 2.627l-.251.707c.438.156.886.293 1.341.411a.16.16 0 00.031.008l.01.003h.001a.03.03 0 00.009.002h.002a.03.03 0 00.009.002.03.03 0 00.009.002h.001l.009.002.002.001.008.002.003.001.008.002.003.001.007.002.004.001.007.002.003.001.007.002.004.001.007.002.004.001.005.001.007.002.004.001.006.002.005.001.005.001.005.001.007.002.003.001.009.002.003.001.009.002.003.001.017.004.012.003c.367.089.74.165 1.117.228l.124-.74a15.085 15.085 0 01-2.579-.669zm7.892.627c-.87.16-1.763.245-2.654.252l.006.75c.95-.008 1.88-.098 2.784-.264l-.136-.738zm4.972-1.861c-.765.452-1.574.839-2.404 1.15l.263.702c.88-.329 1.724-.734 2.523-1.207l-.382-.645zm4.034-3.455a15.397 15.397 0 01-1.866 1.904l.488.57c.166-.142.329-.288.489-.437l.008-.007.008-.007.001-.001.007-.007.001-.001.007-.007.001-.001.007-.006.001-.001.007-.006.002-.002.006-.006.002-.002.006-.006.002-.002.006-.006.002-.002.006-.005.003-.002.005-.004.004-.003.004-.004.003-.003.005-.005.003-.003.005-.005.003-.003.003-.003.005-.005.003-.002.006-.006.002-.002.006-.006.002-.002.021-.02.008-.008.008-.008c.456-.438.886-.902 1.288-1.39l-.578-.478zm2.609-4.625a15.221 15.221 0 01-1.101 2.427l.653.369c.071-.126.141-.254.209-.382l.015-.029.005-.009v-.001l.005-.009.015-.028.001-.001.004-.008v-.001l.005-.009.001-.001.005-.009.005-.009v-.001l.004-.009.001-.001.004-.008.001-.002.004-.008.001-.001.004-.008.001-.002.004-.008.001-.001.004-.008.001-.002.004-.008.001-.002.004-.008.001-.002.004-.007.001-.001.004-.007.002-.003.003-.006.002-.003.003-.007.002-.004.003-.007.002-.003.003-.006.002-.004.003-.005.002-.004.003-.005.002-.004.003-.006.002-.004.002-.005.003-.005.002-.004.003-.006.002-.003.003-.007.002-.004.003-.005.002-.005.002-.004.003-.005a.008.008 0 00.002-.005l.002-.003.003-.007.002-.003.003-.007.002-.003.005-.01.003-.005v-.001l.005-.01.001-.001.004-.009.001-.002.004-.009v-.001a.64.64 0 00.013-.027v-.001l.005-.01c.198-.405.379-.819.543-1.243l.02-.051v-.001l.004-.01.001-.001.004-.009.001-.002.003-.009.001-.002.002-.005.001-.004.003-.007.001-.003.003-.007.001-.004.003-.007.002-.004.002-.005a.014.014 0 00.002-.006l.002-.004.002-.006.002-.004.002-.005.002-.005.002-.006.001-.003.003-.007.001-.003.003-.008.001-.003.003-.008.001-.002.003-.008.001-.002.003-.008.001-.002.003-.009v-.001l.003-.009.001-.002.003-.009a10.286 10.286 0 00.078-.218l-.708-.256zm1.607-5.25l-.75.009.001.184c0 .83-.067 1.663-.2 2.475l.74.121.006-.035c.077-.479.133-.965.166-1.457l.003-.05v-.001l.001-.018v-.001l.001-.012v-.001l.001-.018v-.001l.001-.018.001-.012.001-.018v-.001l.001-.018v-.001l.001-.011v-.009l.001-.011v-.002l.001-.011v-.027l.001-.01v-.927c.024-.043.023-.081.023-.119zm-1.032-5.475l-.701.266c.314.829.557 1.692.721 2.565l.737-.139a15.9 15.9 0 00-.269-1.18c0-.001 0 0 0 0l-.011-.042v-.001a.353.353 0 01-.008-.031l-.003-.01v-.001a.126.126 0 01-.003-.01v-.001l-.003-.01-.003-.01v-.001l-.003-.01v-.001a.126.126 0 01-.003-.01v-.001l-.003-.009v-.001l-.003-.009v-.001l-.003-.009v-.002l-.003-.009-.001-.002a.03.03 0 01-.002-.009l-.001-.002-.003-.009v-.001l-.003-.009v-.001l-.003-.009v-.001l-.003-.009-.001-.002-.003-.009v-.001l-.003-.009v-.001l-.003-.009-.001-.002a.03.03 0 01-.002-.009l-.001-.002a.03.03 0 01-.002-.009l-.001-.002-.002-.008v-.002l-.002-.008-.001-.002-.002-.008-.001-.002-.002-.008-.001-.002-.002-.008-.001-.002-.002-.008-.001-.002-.002-.008-.001-.003-.002-.008-.001-.003-.002-.008-.001-.003-.002-.007v-.002a.069.069 0 00-.003-.008l-.001-.003-.002-.008-.001-.003-.002-.008-.001-.003-.002-.007-.001-.004-.002-.006-.001-.004-.002-.007-.001-.004-.002-.007-.001-.003-.002-.007-.001-.004-.002-.006-.001-.005-.002-.006-.001-.004-.002-.007-.001-.004-.002-.007-.001-.004-.001-.005-.002-.006-.001-.005-.001-.004-.002-.007-.001-.004-.002-.007-.001-.004-.002-.005-.002-.006-.002-.005-.001-.004-.002-.007-.001-.004-.002-.007-.001-.004-.002-.006-.002-.005-.001-.005-.002-.006-.002-.005-.001-.004-.002-.007-.001-.004-.002-.006a.01.01 0 00-.002-.005l-.001-.004-.002-.007-.001-.004-.002-.007-.001-.004-.002-.005-.002-.005-.002-.006-.001-.004-.002-.007-.001-.003a.019.019 0 01-.002-.008l-.001-.003-.003-.008-.001-.003-.002-.005-.001-.004-.002-.007-.001-.003-.003-.008-.001-.003-.003-.009-.001-.002-.002-.006-.001-.002-.003-.009-.001-.003-.003-.009-.001-.002-.003-.01v-.001l-.006-.017v-.001l-.003-.01V11l-.013-.04v-.001l-.003-.01v-.001l-.013-.04a.62.62 0 01-.013-.04v-.001c-.066-.179-.13-.358-.197-.535zm-2.854-4.785l-.568.49c.581.673 1.106 1.4 1.56 2.161l.644-.384v-.001l-.005-.008-.001-.001-.005-.008-.001-.001-.011-.018a.04.04 0 01-.005-.009.04.04 0 01-.005-.009v-.001a.04.04 0 01-.005-.009v-.001a16.095 16.095 0 00-1.598-2.201zm-4.317-3.522l-.366.654c.774.433 1.516.937 2.204 1.499l.474-.581-.017-.014-.033-.027-.008-.006-.001-.001-.008-.006-.001-.001-.008-.006-.008-.007-.008-.006-.001-.001-.007-.006-.002-.001-.007-.006-.002-.001-.007-.006-.001-.002-.007-.006-.002-.001-.006-.005-.002-.002-.006-.005-.001-.001a.043.043 0 01-.007-.006l-.002-.001a.043.043 0 01-.007-.006l-.003-.002-.006-.005-.003-.002-.005-.004-.003-.003-.005-.004-.004-.003-.005-.004-.003-.003a.022.022 0 01-.005-.004l-.004-.003a.022.022 0 01-.005-.004l-.004-.003-.004-.003-.005-.004-.004-.003-.005-.004-.004-.003-.006-.005-.003-.002-.004-.003-.002-.002-.007-.006-.001-.001-.008-.006-.002-.001-.008-.006h-.001l-.009-.007-.001-.001-.033-.026a15.994 15.994 0 00-1.72-1.162.088.088 0 00-.01-.006h-.001a.04.04 0 00-.009-.005l-.002-.001a.04.04 0 00-.009-.005h-.001l-.015-.009-.001-.001a.04.04 0 00-.009-.005l-.003-.001L24 2.141l-.001-.001-.007-.004-.003-.002-.004-.003-.006-.003a.008.008 0 00-.004-.002l-.006-.003-.004-.002-.005-.003-.005-.003a.008.008 0 00-.004-.002l-.005-.003-.005-.003-.003-.002-.006-.004-.004-.002-.007-.004-.003-.002-.007-.004-.003-.002-.006-.004-.002-.001-.007-.004-.002-.001-.007-.004-.002-.001-.007-.004-.003-.001-.008-.004-.002-.001-.008-.005-.001-.001-.008-.005-.009-.005-.001-.001-.008-.005-.001-.001-.009-.005h-.001a.04.04 0 00-.009-.005l-.011-.004zM18.532.199l-.117.741c.877.139 1.747.358 2.584.648l.246-.709a16.004 16.004 0 00-2.713-.68z" fill="#E21B1B"/><path d="M18.52 24.493h-4.528s.006-1.344 0-2.265c-3.099.667-3.964-1.699-3.964-1.699-.566-1.132-1.132-1.699-1.132-1.699-1.132-.673 0-.566 0-.566 1.132 0 1.699 1.132 1.699 1.132.994 1.687 2.762 1.416 3.397 1.132 0-.566.248-1.422.566-1.699-2.473-.279-4.532-1.699-4.532-4.53s.568-3.397 1.135-3.964c-.114-.279-.588-1.311.018-2.831 0 0 1.113 0 2.245 1.699.561-.561 2.265-.566 2.832-.566.565 0 2.269.005 2.83.566 1.132-1.699 2.248-1.699 2.248-1.699.605 1.52.132 2.552.017 2.831.566.566 1.132 1.132 1.132 3.964s-2.056 4.251-4.53 4.53c.319.276.566 1.251.566 1.699l.001 3.965z"/></svg>